PathFileType	4	(X/Y/Z)	./trials/Ivanov/data/jump_js_1.trc
DataRate	CameraRate	NumFrames	NumMarkers	Units	OrigDataRate	OrigDataStartFrame	OrigNumFrames
400	400	6	71	mm	400	72	285
Frame#	Time	r_illiac			r_troch			r_asis			l_illiac			l_troch			l_asis			r_psis			sacrum			l_psis			r_thigh1			r_thigh2			r_thigh3			r_thigh4			rl_knee			rm_knee			r_shank1			r_shank2			r_shank3			r_shank4			r_heel			rl_ankle			rm_ankle			r_metatarsal5			r_metatarsal1			l_thigh1			l_thigh2			l_thigh3			l_thigh4			ll_knee			lm_knee			l_shank1			l_shank2			l_shank3			l_shank4			l_heel			ll_ankle			lm_ankle			l_metatarsal5			l_metatarsal1			back_down			neck			back_right			back_left			head_up			head_front			head_left			head_right			r_shoulder			r_humerus1			r_humerus2			r_humerus3			rl_elbow			rm_elbow			r_radius1			r_radius2			r_radius3			rl_wrist			rm_wrist			r_hand			l_shoulder			l_humerus1			l_humerus2			l_humerus3			ll_elbow			lm_elbow			l_radius1			l_radius2			l_radius3			ll_wrist			lm_wrist			l_hand		
		X1	Y1	Z1	X2	Y2	Z2	X3	Y3	Z3	X4	Y4	Z4	X5	Y5	Z5	X6	Y6	Z6	X7	Y7	Z7	X8	Y8	Z8	X9	Y9	Z9	X10	Y10	Z10	X11	Y11	Z11	X12	Y12	Z12	X13	Y13	Z13	X14	Y14	Z14	X15	Y15	Z15	X16	Y16	Z16	X17	Y17	Z17	X18	Y18	Z18	X19	Y19	Z19	X20	Y20	Z20	X21	Y21	Z21	X22	Y22	Z22	X23	Y23	Z23	X24	Y24	Z24	X25	Y25	Z25	X26	Y26	Z26	X27	Y27	Z27	X28	Y28	Z28	X29	Y29	Z29	X30	Y30	Z30	X31	Y31	Z31	X32	Y32	Z32	X33	Y33	Z33	X34	Y34	Z34	X35	Y35	Z35	X36	Y36	Z36	X37	Y37	Z37	X38	Y38	Z38	X39	Y39	Z39	X40	Y40	Z40	X41	Y41	Z41	X42	Y42	Z42	X43	Y43	Z43	X44	Y44	Z44	X45	Y45	Z45	X46	Y46	Z46	X47	Y47	Z47	X48	Y48	Z48	X49	Y49	Z49	X50	Y50	Z50	X51	Y51	Z51	X52	Y52	Z52	X53	Y53	Z53	X54	Y54	Z54	X55	Y55	Z55	X56	Y56	Z56	X57	Y57	Z57	X58	Y58	Z58	X59	Y59	Z59	X60	Y60	Z60	X61	Y61	Z61	X62	Y62	Z62	X63	Y63	Z63	X64	Y64	Z64	X65	Y65	Z65	X66	Y66	Z66	X67	Y67	Z67	X68	Y68	Z68	X69	Y69	Z69	X70	Y70	Z70	X71	Y71	Z71
72	0.1775	-463.701	724.803	576.728	-486.818	608.764	633.379	-435.862	667.130	544.597	-461.551	728.655	222.785	-547.850	631.832	181.390	-429.996	669.162	258.901	-574.213	773.962	454.771	-548.467	794.390	406.574	-581.993	772.818	357.253	-402.952	553.390	614.840	-377.001	623.611	591.571	-262.564	571.571	603.809	-284.842	520.462	621.664	-162.854	451.684	609.347	-156.742	449.898	464.210	-224.720	367.575	625.867	-162.260	339.247	599.667	-216.999	244.892	585.904	-269.635	268.841	615.008	-450.284	40.279	537.897	-367.238	91.079	584.672	-347.997	103.118	477.313	-232.966	40.532	599.774	-211.052	57.570	511.931	-439.362	580.046	180.173	-407.379	637.034	204.818	-298.159	583.611	183.252	-328.901	526.255	163.473	-193.067	458.812	157.862	-174.657	430.444	290.570	-264.337	390.792	150.800	-201.847	359.474	154.600	-250.167	266.597	163.814	-305.799	287.562	159.442	-455.482	48.832	238.418	-372.152	84.924	191.389	-349.167	97.796	299.306	-240.113	38.796	167.314	-213.026	50.449	262.323	-437.318	871.299	399.406	-175.862	1051.785	382.346	-290.213	976.827	501.309	-284.547	964.943	265.873	-38.157	1259.122	380.423	87.677	1174.733	378.280	-18.014	1162.573	282.412	-23.647	1174.907	474.963	-64.475	972.763	570.094	-145.759	820.449	658.518	-138.808	923.045	739.817	-191.313	833.038	752.876	-269.209	779.395	806.160	-328.273	868.320	807.126	-328.510	740.608	698.802	-367.051	711.850	810.789	-408.997	690.964	718.956	-503.904	729.823	661.717	-482.519	646.391	707.760	-466.902	684.415	641.481	-72.734	979.667	202.098	-139.278	813.187	131.178	-132.403	911.991	44.410	-182.090	823.881	37.922	-275.034	771.561	-40.515	-313.248	862.436	-29.050	-345.109	755.419	97.959	-388.434	680.798	-1.022	-428.222	693.896	92.204	-494.713	742.493	136.945	-473.581	661.642	97.467	-473.476	688.950	157.123
73	0.1800	-463.408	725.740	576.714	-492.957	607.601	631.279	-435.476	668.157	544.596	-461.170	729.693	222.702	-547.407	632.565	181.719	-429.602	670.095	258.922	-573.814	775.189	454.905	-548.100	795.502	406.639	-581.625	773.984	357.292	-402.216	554.073	614.483	-376.440	624.345	591.390	-262.015	571.902	603.273	-284.451	520.744	621.187	-162.673	451.706	608.711	-156.396	450.090	463.498	-224.490	367.741	625.357	-162.022	339.389	599.166	-216.982	244.893	585.542	-269.458	268.943	614.696	-450.316	40.232	537.921	-367.229	91.080	584.595	-348.031	103.013	477.202	-232.979	40.549	599.736	-211.078	57.537	511.882	-438.968	580.819	180.492	-406.782	637.605	205.080	-297.739	583.987	183.680	-328.618	526.710	163.901	-192.908	458.839	158.477	-174.603	430.440	291.182	-264.207	390.880	151.287	-201.695	359.552	155.037	-250.067	266.622	164.167	-305.694	287.667	159.771	-455.479	48.789	238.435	-372.117	84.944	191.454	-348.908	97.604	299.289	-240.095	38.860	167.358	-213.048	50.415	262.385	-436.978	872.625	399.504	-176.027	1053.225	382.312	-290.219	978.259	501.402	-284.482	966.376	265.879	-39.421	1261.168	380.338	86.720	1177.261	378.189	-18.985	1164.662	282.364	-24.574	1177.117	474.920	-64.412	974.567	570.096	-145.519	822.173	658.488	-138.967	924.816	739.894	-191.050	834.638	752.817	-268.923	780.933	806.153	-328.192	869.762	806.979	-328.268	741.942	698.863	-366.586	713.206	810.851	-408.319	692.462	718.846	-503.420	730.756	661.758	-482.147	647.549	708.039	-466.360	685.302	641.593	-72.740	981.682	202.240	-138.848	814.963	131.172	-132.275	913.844	44.515	-181.798	825.749	38.036	-274.746	773.258	-40.332	-313.274	864.047	-28.695	-344.695	756.555	98.167	-387.976	682.027	-0.973	-427.749	694.992	92.242	-494.325	743.514	137.132	-473.113	662.607	97.424	-473.095	689.779	157.216
74	0.1825	-463.030	726.827	576.721	-497.654	606.821	629.655	-435.034	669.235	544.722	-460.763	730.759	222.659	-547.659	635.289	179.733	-429.236	671.046	258.959	-573.382	776.345	454.968	-547.654	796.743	406.730	-581.205	775.240	357.360	-401.701	554.621	614.193	-375.688	625.016	591.096	-261.406	572.212	602.768	-283.951	521.046	620.700	-162.448	451.730	608.116	-156.386	450.036	462.860	-224.242	367.897	624.812	-162.552	339.085	598.895	-216.844	244.909	585.188	-269.287	269.174	614.432	-450.336	40.196	537.927	-367.228	91.095	584.533	-348.079	102.942	477.098	-232.972	40.566	599.698	-211.030	57.583	511.763	-438.424	581.648	180.725	-406.195	638.488	205.309	-297.198	584.341	184.082	-328.401	527.180	164.394	-192.700	458.843	159.082	-174.584	430.438	291.812	-264.059	390.922	151.774	-201.537	359.626	155.507	-249.971	266.664	164.525	-305.563	287.714	160.095	-455.486	48.775	238.440	-372.125	84.969	191.528	-348.967	97.602	299.420	-240.127	38.899	167.415	-213.045	50.390	262.454	-436.981	873.720	399.504	-176.284	1055.029	382.419	-290.250	979.706	501.503	-284.562	967.984	265.909	-40.687	1263.410	380.271	85.734	1179.891	378.063	-19.958	1166.874	282.308	-25.188	1179.758	475.183	-64.457	976.505	570.128	-145.339	823.995	658.499	-138.898	926.545	739.929	-190.862	836.176	752.742	-268.622	782.527	806.088	-328.048	871.279	806.883	-327.913	743.546	698.258	-366.134	714.533	810.896	-408.037	693.600	719.213	-502.896	731.687	661.761	-481.515	648.482	708.123	-465.960	686.195	641.701	-72.677	983.712	202.395	-138.483	817.123	131.391	-132.187	915.848	44.630	-181.519	827.511	38.187	-274.409	774.913	-40.108	-312.956	865.593	-28.362	-342.959	756.577	98.487	-387.445	683.514	-1.003	-427.421	696.137	92.270	-493.939	744.367	137.148	-472.689	663.700	97.345	-471.251	690.358	157.522
75	0.1850	-462.692	727.794	576.769	-500.527	606.525	628.636	-434.458	670.309	544.826	-460.408	732.075	222.683	-547.305	636.335	179.720	-428.898	672.014	259.013	-572.913	777.588	455.046	-547.302	797.883	406.746	-580.808	776.453	357.401	-401.089	555.306	613.923	-374.945	625.587	590.771	-260.786	572.515	602.273	-283.410	521.427	620.210	-162.234	451.745	607.484	-156.297	449.991	462.209	-224.126	367.838	624.280	-162.435	339.041	598.385	-216.801	244.889	584.822	-269.078	269.461	614.212	-450.353	40.127	537.946	-367.204	91.104	584.460	-348.109	102.844	476.988	-232.937	40.600	599.658	-211.792	56.842	511.783	-438.019	582.291	181.035	-405.653	639.177	205.508	-296.690	584.757	184.579	-327.968	527.692	164.839	-192.521	458.899	159.710	-174.567	430.384	292.407	-263.966	390.932	152.260	-201.410	359.633	155.998	-249.870	266.722	164.905	-305.451	287.730	160.438	-455.506	48.756	238.439	-372.117	85.001	191.589	-349.005	97.508	299.527	-240.113	39.008	167.439	-213.058	50.365	262.498	-436.606	875.119	399.564	-176.565	1056.836	382.542	-290.272	981.195	501.530	-284.715	969.699	265.928	-41.937	1265.643	380.168	84.763	1182.537	377.917	-21.021	1169.141	282.258	-26.210	1182.286	475.217	-64.501	978.505	570.152	-145.166	825.835	658.411	-138.755	928.344	739.806	-190.615	838.002	752.704	-268.366	784.207	806.069	-328.003	872.848	806.692	-327.578	744.951	698.245	-365.438	715.871	811.027	-407.431	694.972	719.163	-502.309	732.534	661.781	-481.122	649.663	708.329	-465.460	687.046	641.786	-72.582	985.934	202.534	-138.191	818.951	131.548	-132.043	917.844	44.760	-181.144	829.502	38.313	-273.812	776.680	-39.974	-312.953	867.100	-28.009	-342.703	757.867	98.700	-386.898	684.865	-0.956	-426.977	697.255	92.274	-493.557	745.296	137.159	-472.381	664.613	97.332	-470.848	691.670	157.761
76	0.1875	-462.279	728.934	576.770	-501.194	606.814	628.349	-433.922	671.361	544.902	-458.943	732.740	221.812	-547.172	636.591	180.413	-428.592	672.998	259.084	-572.467	778.791	455.122	-546.892	799.289	406.827	-580.338	777.799	357.439	-400.484	556.133	613.634	-374.137	626.216	590.456	-260.168	572.849	601.724	-282.614	521.790	619.765	-162.068	451.696	606.775	-156.262	449.900	461.624	-223.895	367.946	623.820	-162.304	339.083	597.913	-216.723	244.863	584.454	-268.979	269.492	613.899	-450.363	40.091	537.961	-367.196	91.140	584.394	-348.144	102.726	476.884	-232.945	40.604	599.612	-211.817	56.765	511.676	-437.427	582.914	181.279	-404.970	639.753	205.814	-296.208	585.165	185.069	-326.893	528.457	164.771	-192.284	458.915	160.284	-174.627	430.280	293.042	-263.805	390.974	152.772	-201.279	359.614	156.578	-249.745	266.790	165.273	-305.331	287.743	160.812	-455.514	48.748	238.459	-372.095	85.031	191.678	-349.033	97.460	299.653	-240.107	39.031	167.503	-213.068	50.319	262.565	-436.622	876.356	399.565	-176.877	1058.777	382.686	-290.159	982.718	501.707	-284.667	971.195	265.945	-43.211	1268.021	380.094	83.733	1185.398	377.759	-22.032	1171.462	282.199	-27.047	1184.619	475.177	-64.478	980.519	570.179	-144.933	827.754	658.364	-138.727	930.097	739.945	-190.464	839.614	752.634	-268.044	785.852	806.019	-327.605	874.355	806.593	-327.117	746.369	698.227	-364.934	717.255	811.042	-406.919	695.754	719.291	-501.430	732.804	662.326	-480.592	650.620	708.450	-464.921	688.019	641.893	-72.577	988.152	202.673	-137.659	821.102	131.898	-131.994	919.852	44.884	-180.870	831.427	38.532	-273.508	778.457	-39.718	-312.823	868.833	-27.632	-342.026	758.791	98.356	-386.333	686.250	-0.922	-426.542	698.458	92.265	-493.509	745.966	136.841	-471.775	665.714	97.261	-470.363	692.510	157.742
77	0.1900	-461.977	730.027	576.721	-501.666	607.034	628.092	-433.394	672.592	544.990	-458.464	733.854	221.733	-546.758	637.445	180.641	-428.319	673.999	259.173	-572.032	780.090	455.166	-546.493	800.480	406.864	-579.878	779.087	357.429	-399.803	556.764	613.310	-373.352	626.915	590.088	-259.497	573.110	601.155	-282.145	522.143	619.260	-161.877	451.778	606.097	-156.248	449.805	460.978	-223.679	368.035	623.349	-162.172	339.117	597.395	-216.679	244.798	584.073	-268.812	269.520	613.514	-450.376	40.040	537.986	-367.169	91.173	584.324	-348.214	102.638	476.801	-232.953	40.602	599.580	-211.754	56.777	511.568	-436.929	583.645	181.586	-404.325	640.418	206.079	-295.668	585.586	185.543	-326.389	528.929	165.222	-192.080	458.943	160.866	-174.622	430.231	293.670	-263.606	391.009	153.307	-201.157	359.609	157.147	-249.692	266.742	165.696	-305.170	287.752	161.184	-455.511	48.739	238.459	-372.069	85.078	191.754	-349.030	97.306	299.749	-240.106	39.071	167.534	-213.063	50.279	262.628	-436.429	877.696	399.584	-177.248	1060.691	382.812	-290.280	984.306	501.740	-284.701	972.842	265.989	-44.577	1270.384	379.998	82.699	1188.228	377.572	-23.122	1173.908	282.187	-27.986	1187.162	475.164	-64.660	982.735	570.230	-144.631	829.735	658.278	-138.611	932.025	739.924	-190.238	841.464	752.540	-267.820	787.499	805.963	-327.840	875.713	806.201	-326.778	747.782	698.207	-364.395	718.693	811.087	-406.362	696.990	719.393	-500.974	733.759	662.385	-479.920	651.666	708.589	-464.497	688.928	641.999	-72.690	990.529	202.817	-137.306	823.139	132.115	-131.890	922.001	45.038	-180.567	833.341	38.732	-273.167	780.186	-39.465	-312.445	870.577	-27.327	-342.492	760.764	98.661	-385.771	687.614	-0.856	-426.168	699.714	92.299	-492.864	747.261	137.360	-471.352	666.767	97.198	-470.024	693.633	157.844
